<svg xmlns="http://www.w3.org/2000/svg" viewBox="0 0 252.78 24.29"><title>codepen-projects</title><path d="M31.15,24.29a1.14,1.14,0,0,1-.65-.2l-11-7.28a1.14,1.14,0,0,1-.33-.31h0a1.14,1.14,0,0,1-.19-.65V8.45a1.15,1.15,0,0,1,.18-.63h0l0-.05a1.14,1.14,0,0,1,.32-.31L30.5.19a1.21,1.21,0,0,1,1.3,0l11,7.28a1.14,1.14,0,0,1,.32.31l0,.05h0a1.14,1.14,0,0,1,.18.63v7.37a1.14,1.14,0,0,1-.19.65h0a1.16,1.16,0,0,1-.32.31l-11,7.28A1.14,1.14,0,0,1,31.15,24.29Zm1.15-7.93V21l7.78-5.16L36.61,13.5Zm-10.08-.52L30,21V16.36L25.69,13.5Zm5.54-3.73,3.39,2.25,3.39-2.25L31.15,9.82Zm10.92,0L41,13.68v-3.1ZM21.3,10.58v3.1l2.32-1.56Zm11-2.76,4.32,2.9,3.45-2.29L32.3,3.28Zm-10.07.61,3.45,2.29L30,7.83V3.28ZM131.15,20.29a1.15,1.15,0,0,1-.9-.44L121.3,8.46V19.14a1.15,1.15,0,0,1-2.3,0v-14a1.15,1.15,0,0,1,2.05-.71L130,15.81V5.14a1.15,1.15,0,0,1,2.3,0v14a1.15,1.15,0,0,1-.77,1.09A1.14,1.14,0,0,1,131.15,20.29Zm-19,0h-9A1.15,1.15,0,0,1,102,19.14v-14A1.15,1.15,0,0,1,103.15,4h9a1.15,1.15,0,1,1,0,2.3H104.3V11h4.85a1.15,1.15,0,1,1,0,2.3H104.3V18h7.85a1.15,1.15,0,1,1,0,2.3Zm-26,0A1.15,1.15,0,0,1,85,19.14v-14A1.15,1.15,0,0,1,86.15,4h6a5.15,5.15,0,1,1,0,10.3H87.3v4.85A1.15,1.15,0,0,1,86.15,20.29ZM87.3,12h4.85a2.85,2.85,0,0,0,0-5.7H87.3Zm-9.15,8.3h-9A1.15,1.15,0,0,1,68,19.14v-14A1.15,1.15,0,0,1,69.15,4h9a1.15,1.15,0,1,1,0,2.3H70.3V11h4.85a1.15,1.15,0,0,1,0,2.3H70.3V18h7.85a1.15,1.15,0,1,1,0,2.3Zm-23,0h-5A1.15,1.15,0,0,1,49,19.14v-14A1.15,1.15,0,0,1,50.15,4h5a8,8,0,0,1,8.15,8.15A8,8,0,0,1,55.15,20.29ZM51.3,18h3.85A5.66,5.66,0,0,0,61,12.14a5.66,5.66,0,0,0-5.85-5.85H51.3ZM8.15,20.29A8,8,0,0,1,0,12.14,8,8,0,0,1,8.15,4,8,8,0,0,1,14,6.33,1.15,1.15,0,1,1,12.34,8,5.7,5.7,0,0,0,8.15,6.29,5.66,5.66,0,0,0,2.3,12.14,5.66,5.66,0,0,0,8.15,18a6.17,6.17,0,0,0,4.22-1.69A1.15,1.15,0,0,1,13.93,18,8.41,8.41,0,0,1,8.15,20.29Z"/><path d="M145.93,19.95c0,.21,0,.23.23.23h4.17c.21,0,.23,0,.23-.23V15.53c0-.21,0-.23.23-.23h1.95a5.56,5.56,0,0,0,5.91-5.77,5.22,5.22,0,0,0-2.5-4.82A7.18,7.18,0,0,0,152.67,4h-6.51c-.21,0-.23,0-.23.23Zm5.93-12.27c1.44,0,2.08.72,2.08,2a1.85,1.85,0,0,1-2.08,2h-1.07c-.21,0-.23,0-.23-.23V7.91c0-.21,0-.23.23-.23Z"/><path d="M166.22,7.68a1.86,1.86,0,0,1,2,2.13,1.92,1.92,0,0,1-2,2.13H165c-.21,0-.23,0-.23-.23V7.91c0-.21,0-.23.23-.23Zm-1.3,7.64c.14,0,.23.07.39.3l3.22,4.33c.12.19.16.23.37.23h4.89c.14,0,.21,0,.21-.07a.4.4,0,0,0-.07-.16l-4.26-5.47a.39.39,0,0,1,0-.12.12.12,0,0,1,.09-.12,5,5,0,0,0,3.15-4.72c0-3.94-2.8-5.56-6.25-5.56h-6.28c-.21,0-.23,0-.23.23V19.95c0,.21,0,.23.23.23h4.17c.21,0,.23,0,.23-.23V15.62C164.74,15.41,164.78,15.32,164.92,15.32Z"/><path d="M190.46,12.08a8.27,8.27,0,1,0-16.53,0,8.27,8.27,0,1,0,16.53,0Zm-11.67,0a3.42,3.42,0,1,1,6.81,0,3.42,3.42,0,1,1-6.81,0Z"/><path d="M198.53,4.2c0-.21,0-.23-.23-.23H194c-.21,0-.23,0-.23.23V14.78c0,1.2-.58,1.57-1.48,1.57a5.19,5.19,0,0,1-1-.16c-.19,0-.23,0-.23.19V20c0,.21,0,.23.23.28a15.17,15.17,0,0,0,2.52.21c3,0,4.75-1.55,4.75-4.19Z"/><path d="M200.84,19.95c0,.21,0,.23.23.23h10.54c.21,0,.23,0,.23-.23V16.61c0-.21,0-.23-.23-.23h-5.79c-.21,0-.23,0-.23-.23V14.3c0-.21,0-.23.23-.23h5.44c.21,0,.23,0,.23-.23v-3.2c0-.21,0-.23-.23-.23h-5.44c-.21,0-.23,0-.23-.23V8c0-.21,0-.23.23-.23h5.67c.21,0,.23,0,.23-.23V4.2c0-.21,0-.23-.23-.23H201.07c-.21,0-.23,0-.23.23Z"/><path d="M221.66,20.55A10,10,0,0,0,226,19.6c.14-.07.19-.12.19-.23V14.6c0-.14,0-.16-.09-.16a.13.13,0,0,0-.12,0,5.51,5.51,0,0,1-3.89,1.34c-2.64,0-4-1.53-4-3.75s1.39-3.75,4-3.75a5.45,5.45,0,0,1,3.87,1.34.13.13,0,0,0,.12,0s.09,0,.09-.16V4.78c0-.12,0-.16-.19-.23a10,10,0,0,0-4.31-.95,8.26,8.26,0,0,0-8.48,8.48A8.18,8.18,0,0,0,221.66,20.55Z"/><path d="M227.48,7.79c0,.21,0,.23.23.23h3.08c.21,0,.23,0,.23.23V19.95c0,.21,0,.23.23.23h4.28c.21,0,.23,0,.23-.23V8.25c0-.21,0-.23.23-.23h3.08c.21,0,.23,0,.23-.23V4.2c0-.21,0-.23-.23-.23H227.71c-.21,0-.23,0-.23.23Z"/><path d="M252.7,15.55c0-5.74-7.18-4.65-7.18-6.95,0-.63.49-.95,1.13-.95A2.31,2.31,0,0,1,248.74,9c.09.14.16.14.37.07l3.45-1.53c.21-.07.3-.14.14-.39a6.71,6.71,0,0,0-6.28-3.59c-3.64,0-6,2.08-6,4.93,0,5.51,6.95,4.52,6.95,6.95,0,.69-.53,1-1.18,1A2.59,2.59,0,0,1,244,14.83c-.12-.16-.14-.16-.28-.14l-3.8,1.67c-.21.07-.25.14-.12.44,1,2.13,3.22,3.75,6.76,3.75C250.82,20.55,252.7,18.33,252.7,15.55Z"/><path d="M145.93,20.09c0,.21,0,.23.23.23h4.17c.21,0,.23,0,.23-.23V15.66c0-.21,0-.23.23-.23h1.95a5.56,5.56,0,0,0,5.91-5.77,5.22,5.22,0,0,0-2.5-4.82,7.18,7.18,0,0,0-3.47-.74h-6.51c-.21,0-.23,0-.23.23Zm5.93-12.27c1.44,0,2.08.72,2.08,2a1.85,1.85,0,0,1-2.08,2h-1.07c-.21,0-.23,0-.23-.23V8c0-.21,0-.23.23-.23Z"/><path d="M166.22,7.81a1.86,1.86,0,0,1,2,2.13,1.92,1.92,0,0,1-2,2.13H165c-.21,0-.23,0-.23-.23V8c0-.21,0-.23.23-.23Zm-1.3,7.64c.14,0,.23.07.39.3l3.22,4.33c.12.19.16.23.37.23h4.89c.14,0,.21,0,.21-.07a.4.4,0,0,0-.07-.16l-4.26-5.47a.39.39,0,0,1,0-.12.12.12,0,0,1,.09-.12,5,5,0,0,0,3.15-4.72c0-3.94-2.8-5.56-6.25-5.56h-6.28c-.21,0-.23,0-.23.23V20.09c0,.21,0,.23.23.23h4.17c.21,0,.23,0,.23-.23V15.76C164.74,15.55,164.78,15.46,164.92,15.46Z"/><path d="M190.46,12.21a8.27,8.27,0,1,0-16.53,0,8.27,8.27,0,1,0,16.53,0Zm-11.67,0a3.42,3.42,0,1,1,6.81,0,3.42,3.42,0,1,1-6.81,0Z"/><path d="M198.53,4.34c0-.21,0-.23-.23-.23H194c-.21,0-.23,0-.23.23V14.92c0,1.2-.58,1.57-1.48,1.57a5.19,5.19,0,0,1-1-.16c-.19,0-.23,0-.23.19v3.59c0,.21,0,.23.23.28a15.17,15.17,0,0,0,2.52.21c3,0,4.75-1.55,4.75-4.19Z"/><path d="M200.84,20.09c0,.21,0,.23.23.23h10.54c.21,0,.23,0,.23-.23V16.75c0-.21,0-.23-.23-.23h-5.79c-.21,0-.23,0-.23-.23V14.44c0-.21,0-.23.23-.23h5.44c.21,0,.23,0,.23-.23v-3.2c0-.21,0-.23-.23-.23h-5.44c-.21,0-.23,0-.23-.23V8.14c0-.21,0-.23.23-.23h5.67c.21,0,.23,0,.23-.23V4.34c0-.21,0-.23-.23-.23H201.07c-.21,0-.23,0-.23.23Z"/><path d="M221.66,20.69a10,10,0,0,0,4.31-.95c.14-.07.19-.12.19-.23V14.74c0-.14,0-.16-.09-.16a.13.13,0,0,0-.12,0A5.51,5.51,0,0,1,222.06,16c-2.64,0-4-1.53-4-3.75s1.39-3.75,4-3.75a5.45,5.45,0,0,1,3.87,1.34.13.13,0,0,0,.12,0s.09,0,.09-.16V4.92c0-.12,0-.16-.19-.23a10,10,0,0,0-4.31-.95,8.26,8.26,0,0,0-8.48,8.48A8.18,8.18,0,0,0,221.66,20.69Z"/><path d="M227.48,7.93c0,.21,0,.23.23.23h3.08c.21,0,.23,0,.23.23V20.09c0,.21,0,.23.23.23h4.28c.21,0,.23,0,.23-.23V8.39c0-.21,0-.23.23-.23h3.08c.21,0,.23,0,.23-.23V4.34c0-.21,0-.23-.23-.23H227.71c-.21,0-.23,0-.23.23Z"/><path d="M252.7,15.69c0-5.74-7.18-4.65-7.18-6.95,0-.63.49-.95,1.13-.95a2.31,2.31,0,0,1,2.08,1.39c.09.14.16.14.37.07l3.45-1.53c.21-.07.3-.14.14-.39a6.71,6.71,0,0,0-6.28-3.59c-3.64,0-6,2.08-6,4.93,0,5.51,6.95,4.52,6.95,6.95,0,.69-.53,1-1.18,1A2.59,2.59,0,0,1,244,15c-.12-.16-.14-.16-.28-.14l-3.8,1.67c-.21.07-.25.14-.12.44,1,2.13,3.22,3.75,6.76,3.75C250.82,20.69,252.7,18.47,252.7,15.69Z"/></svg>